<svg xmlns="http://www.w3.org/2000/svg" width="150" height="150" viewBox="0 0 150 150"><rect width="100%" height="100%" fill="#DDDDDD"/><path fill="#999999" d="M37.83 81.57h11.85v4.55H32.31V56.48h5.52v25.09Zm24.29-16.81q2.34 0 4.25.76 1.92.76 3.28 2.15 1.37 1.39 2.1 3.4.74 2.01.74 4.49 0 2.5-.74 4.51-.73 2.01-2.1 3.43-1.36 1.41-3.28 2.17-1.91.76-4.25.76-2.36 0-4.29-.76-1.92-.76-3.29-2.17-1.36-1.42-2.11-3.43-.75-2.01-.75-4.51 0-2.48.75-4.49.75-2.01 2.11-3.4 1.37-1.39 3.29-2.15 1.93-.76 4.29-.76Zm0 17.77q2.62 0 3.88-1.76 1.26-1.76 1.26-5.17 0-3.4-1.26-5.18-1.26-1.79-3.88-1.79-2.67 0-3.95 1.8-1.28 1.79-1.28 5.17 0 3.39 1.28 5.16t3.95 1.77Zm21.93-7.44q.95 0 1.64-.26.7-.25 1.16-.7.46-.45.7-1.09.24-.63.24-1.39 0-1.56-.94-2.47-.93-.92-2.8-.92-1.86 0-2.79.92-.94.91-.94 2.47 0 .73.24 1.37.23.64.7 1.1.46.46 1.16.71.71.26 1.63.26Zm5.72 11.97q0-.61-.37-1-.36-.39-1-.61-.64-.21-1.49-.31-.85-.11-1.8-.16-.95-.05-1.97-.09-1.01-.04-1.98-.16-.84.47-1.36 1.1-.52.64-.52 1.48 0 .55.27 1.03.28.49.89.83.6.35 1.56.55.97.19 2.36.19 1.42 0 2.44-.21 1.03-.22 1.69-.6.67-.38.98-.9.3-.52.3-1.14Zm-1-21.26h6.05v1.89q0 .9-1.09 1.11l-1.89.35q.43 1.08.43 2.37 0 1.56-.62 2.82-.63 1.26-1.73 2.15-1.11.88-2.62 1.36-1.5.48-3.25.48-.61 0-1.18-.06-.58-.06-1.13-.17-.99.6-.99 1.34 0 .63.59.93.58.3 1.55.42.96.12 2.19.15t2.52.14q1.29.1 2.52.36 1.23.25 2.2.81.96.55 1.54 1.5.59.96.59 2.45 0 1.4-.69 2.71t-1.99 2.34q-1.3 1.02-3.2 1.65-1.89.62-4.31.62-2.38 0-4.14-.46-1.76-.46-2.93-1.23-1.17-.77-1.75-1.77-.57-1.01-.57-2.1 0-1.47.89-2.47.89-.99 2.45-1.58-.84-.43-1.33-1.15-.49-.72-.49-1.89 0-.47.17-.97.18-.5.51-1 .34-.49.85-.93.52-.44 1.21-.79-1.59-.86-2.51-2.29-.91-1.44-.91-3.37 0-1.55.63-2.81.62-1.27 1.74-2.16 1.12-.89 2.64-1.36 1.53-.47 3.33-.47 1.36 0 2.55.27 1.19.28 2.17.81Zm18.55-1.04q2.34 0 4.26.76 1.91.76 3.28 2.15 1.36 1.39 2.1 3.4.73 2.01.73 4.49 0 2.5-.73 4.51-.74 2.01-2.1 3.43-1.37 1.41-3.28 2.17-1.92.76-4.26.76-2.36 0-4.28-.76-1.93-.76-3.29-2.17-1.37-1.42-2.11-3.43-.75-2.01-.75-4.51 0-2.48.75-4.49.74-2.01 2.11-3.4 1.36-1.39 3.29-2.15 1.92-.76 4.28-.76Zm0 17.77q2.63 0 3.89-1.76 1.26-1.76 1.26-5.17 0-3.4-1.26-5.18-1.26-1.79-3.89-1.79-2.66 0-3.94 1.8-1.29 1.79-1.29 5.17 0 3.39 1.29 5.16 1.28 1.77 3.94 1.77Z"/></svg>