<?xml version="1.0" standalone="no"?>
<!DOCTYPE svg PUBLIC "-//W3C//DTD SVG 20010904//EN"
 "http://www.w3.org/TR/2001/REC-SVG-20010904/DTD/svg10.dtd">
<svg version="1.0" xmlns="http://www.w3.org/2000/svg"
 width="85.000000pt" height="85.000000pt" viewBox="0 0 85.000000 85.000000"
 preserveAspectRatio="xMidYMid meet">
<metadata>
Created by potrace 1.14, written by Peter Selinger 2001-2017
</metadata>
<g transform="translate(0.000000,85.000000) scale(0.100000,-0.100000)"
fill="#000000" stroke="none">
<path d="M316 799 c-28 -8 -65 -23 -82 -32 -36 -18 -124 -103 -124 -119 0 -6
23 -51 52 -100 41 -72 54 -87 63 -76 16 17 195 329 195 339 0 12 -44 7 -104
-12z"/>
<path d="M410 728 c-29 -51 -54 -96 -56 -99 -2 -3 91 -6 206 -6 l210 0 -27 36
c-55 73 -129 124 -215 147 -29 7 -56 14 -59 14 -4 0 -30 -42 -59 -92z"/>
<path d="M67 583 c-41 -93 -42 -223 -4 -303 12 -24 15 -25 120 -25 59 0 107 2
107 5 0 5 -197 351 -204 357 -2 2 -10 -14 -19 -34z"/>
<path d="M587 592 c-9 -2 -17 -5 -17 -7 0 -2 23 -40 50 -85 28 -45 50 -83 50
-85 0 -14 103 -175 109 -171 15 9 42 114 45 169 3 56 -17 154 -34 171 -9 9
-166 15 -203 8z"/>
<path d="M537 211 c-53 -93 -97 -172 -97 -176 0 -16 98 6 156 35 57 28 158
115 152 130 -10 23 -104 180 -108 180 -3 0 -49 -76 -103 -169z"/>
<path d="M109 192 c56 -79 174 -151 252 -155 l41 -2 49 85 c27 47 49 88 49 93
0 4 -93 7 -206 7 l-205 0 20 -28z"/>
</g>
</svg>
